<svg height="682pt" viewBox="-74 -21 682 682.66669" width="682pt" xmlns="http://www.w3.org/2000/svg"><path d="m329.167969 217.363281h-236.988281c-16.230469 0-16.25 25.285157 0 25.285157h236.988281c16.230469 0 16.253906-25.285157 0-25.285157zm0 0"/><path d="m329.167969 285.421875h-236.988281c-16.230469 0-16.25 25.277344 0 25.277344h236.988281c16.230469 0 16.253906-25.277344 0-25.277344zm0 0"/><path d="m341.808594 366.113281c0-6.976562-5.660156-12.636719-12.640625-12.636719h-236.988281c-16.230469 0-16.25 25.277344 0 25.277344h236.988281c6.980469 0 12.640625-5.660156 12.640625-12.640625zm0 0"/><path d="m92.179688 421.527344c-16.230469 0-16.25 25.285156 0 25.285156h163.046874c16.230469 0 16.253907-25.285156 0-25.285156zm0 0"/><path d="m429.132812 411.5625v-110.640625c0-16.230469-25.277343-16.25-25.277343 0v110.640625c-57.25 6.3125-101.929688 54.964844-101.929688 113.867188 0 13.9375 2.503907 27.300781 7.082031 39.667968h-286.894531v-539.820312h259.746094v121.460937c0 6.976563 5.65625 12.636719 12.636719 12.636719h109.359375v40.007812c0 16.234376 25.277343 16.257813 25.277343 0v-52.644531c0-3.109375-1.199218-6.210937-3.289062-8.503906l-122-134.097656c-2.570312-2.832031-6.230469-4.285157-9.921875-4.1171878-.121094-.0039062-.246094-.0195312-.375-.0195312h-271.433594c-13.9375 0-25.28125 11.34375-25.28125 25.277344v539.820312c0 13.933594 11.34375 25.277344 25.28125 25.277344h300.050781c20.683594 29.957031 55.25 49.625 94.328126 49.625 63.171874 0 114.570312-51.398438 114.570312-114.570312 0-58.902344-44.683594-107.554688-101.929688-113.867188zm-121.996093-366.246094 80.765625 88.78125h-80.765625zm109.355469 569.40625c-49.234376 0-89.289063-40.058594-89.289063-89.292968 0-49.234376 40.054687-89.289063 89.289063-89.289063 49.238281 0 89.292968 40.054687 89.292968 89.289063 0 49.234374-40.054687 89.292968-89.292968 89.292968zm0 0"/><path d="m416.492188 463.46875c-6.976563 0-12.636719 5.65625-12.636719 12.632812v56.609376c0 16.230468 25.277343 16.253906 25.277343 0v-56.609376c0-6.976562-5.660156-12.632812-12.640624-12.632812zm0 0"/><path d="m416.492188 563.46875c-6.761719 0-12.53125 5.652344-12.617188 12.421875-.09375 7.019531 5.648438 12.800781 12.644531 12.804687 6.984375.011719 12.75-5.90625 12.605469-12.890624-.144531-6.71875-5.925781-12.335938-12.632812-12.335938zm0 0"/><path d="m416.492188 237.308594c-6.757813 0-12.53125 5.660156-12.617188 12.417968-.09375 7.015626 5.652344 12.808594 12.644531 12.816407 6.980469.011719 12.746094-5.925781 12.605469-12.898438-.144531-6.710937-5.929688-12.335937-12.632812-12.335937zm0 0"/></svg>